<svg xmlns="http://www.w3.org/2000/svg" xmlns:xlink="http://www.w3.org/1999/xlink" viewBox="0 0 18.27 12.23"><defs><style>.cls-1{fill:none;}.cls-2{opacity:0.5;}.cls-3{clip-path:url(#clip-path);}</style><clipPath id="clip-path" transform="translate(0 0)"><rect class="cls-1" width="18.27" height="12.23"/></clipPath></defs><g id="Layer_2" data-name="Layer 2"><g id="Layer_1-2" data-name="Layer 1"><g class="cls-2"><g class="cls-3"><path d="M17.13,0h-16A1.14,1.14,0,0,0,0,1.15v9.93a1.14,1.14,0,0,0,1.14,1.15h16a1.14,1.14,0,0,0,1.14-1.15V1.15A1.14,1.14,0,0,0,17.13,0m.38,11.08a.39.39,0,0,1-.38.39h-16a.39.39,0,0,1-.38-.39V1.15A.39.39,0,0,1,1.14.76h16a.39.39,0,0,1,.38.39Z" transform="translate(0 0)"/><path d="M18,.41a.38.38,0,0,0-.53-.08L9.81,5.89a1.12,1.12,0,0,1-1.35,0L.8.33A.38.38,0,0,0,.35,1L8,6.51a1.84,1.84,0,0,0,1.12.37,1.88,1.88,0,0,0,1.12-.37L17.92,1A.39.39,0,0,0,18,.41" transform="translate(0 0)"/><path d="M8.43,5.89a.38.38,0,0,0-.54-.08L.36,11.29a.39.39,0,0,0,.23.7.4.4,0,0,0,.22-.08L8.34,6.43a.4.4,0,0,0,.09-.54" transform="translate(0 0)"/><path d="M17.91,11.29,10.38,5.81a.38.38,0,0,0-.45.61l7.53,5.49a.4.4,0,0,0,.23.08.41.41,0,0,0,.31-.16.4.4,0,0,0-.09-.54" transform="translate(0 0)"/></g></g></g></g></svg>