<svg xmlns="http://www.w3.org/2000/svg" viewBox="0 0 21 21"><defs><style>.cls-1{fill:#fe3e01;}.cls-2{fill:#1a76d0;}.cls-3{fill:#4daf50;}.cls-4{fill:#fec008;}</style></defs><g id="Layer_2" data-name="Layer 2"><g id="Layer_1-2" data-name="Layer 1"><path class="cls-1" d="M1.24,5.59A10.14,10.14,0,0,1,4.77,1.71,10.22,10.22,0,0,1,11.43,0a10.32,10.32,0,0,1,6.06,2.63c.13.12.16.18,0,.32-.9.88-1.78,1.77-2.66,2.65-.12.12-.19.16-.34,0A6.26,6.26,0,0,0,4.75,8s0,.1-.08.14C3.9,7.57,3.12,7,2.36,6.45a8.53,8.53,0,0,1-1.12-.86"/><path class="cls-2" d="M14.33,15.51a7.29,7.29,0,0,0,1.47-1.62,5.79,5.79,0,0,0,.61-1.25.67.67,0,0,0-.31,0H10.78c-.21,0-.28,0-.28-.27,0-1.23,0-2.47,0-3.7,0-.19.05-.25.25-.25h9c.31,0,.63,0,.94,0s.16.11.18.22a10.3,10.3,0,0,1,0,3.46A10.23,10.23,0,0,1,17.82,18a2.65,2.65,0,0,1-.26.21l-.16-.1c-.58-.49-1.16-1-1.73-1.47s-.93-.74-1.34-1.17"/><path class="cls-3" d="M14.33,15.51c.41.43.89.78,1.34,1.17s1.15,1,1.73,1.47l.16.1a10,10,0,0,1-5.09,2.56,10.3,10.3,0,0,1-8.6-2.18,9.88,9.88,0,0,1-2.71-3.37l.55-.41,2.86-2.23A7,7,0,0,0,6,14.91a6.26,6.26,0,0,0,8.08.75l.23-.15"/><path class="cls-4" d="M4.57,12.62,1.71,14.85l-.55.41a10.34,10.34,0,0,1,.08-9.67,8.53,8.53,0,0,0,1.12.86C3.12,7,3.9,7.57,4.67,8.12a6.4,6.4,0,0,0-.1,4.5"/></g></g></svg>