<svg xmlns="http://www.w3.org/2000/svg" xmlns:xlink="http://www.w3.org/1999/xlink" viewBox="0 0 31.14 31.14"><defs><style>.cls-1{fill:url(#linear-gradient);}.cls-2{fill:#fff;}</style><linearGradient id="linear-gradient" x1="-0.5" y1="15.57" x2="40.22" y2="15.57" gradientUnits="userSpaceOnUse"><stop offset="0" stop-color="#ffe185"/><stop offset="0" stop-color="#ffe185"/><stop offset="0.21" stop-color="#ffbb36"/><stop offset="0.38" stop-color="#ff5176"/><stop offset="0.52" stop-color="#f63395"/><stop offset="0.74" stop-color="#a436d2"/><stop offset="1" stop-color="#5f4eed"/></linearGradient></defs><g id="Layer_2" data-name="Layer 2"><g id="Layer_1-2" data-name="Layer 1"><path class="cls-1" d="M31.14,7.65V23.49a7.68,7.68,0,0,1-7.65,7.65H7.65A7.67,7.67,0,0,1,0,23.49V7.65A7.68,7.68,0,0,1,7.65,0H23.49A7.68,7.68,0,0,1,31.14,7.65Z"/><path class="cls-2" d="M21.09,9.73a1.07,1.07,0,1,0,1.07,1.07,1.07,1.07,0,0,0-1.07-1.07"/><path class="cls-2" d="M16.33,11.1a4.5,4.5,0,1,0,4.5,4.49,4.5,4.5,0,0,0-4.5-4.49m0,7.37a2.88,2.88,0,1,1,2.88-2.88,2.88,2.88,0,0,1-2.88,2.88"/><path class="cls-2" d="M19.9,24.72H12.61a5.49,5.49,0,0,1-5.48-5.48V12a5.49,5.49,0,0,1,5.48-5.48H19.9A5.49,5.49,0,0,1,25.38,12v7.29a5.49,5.49,0,0,1-5.48,5.48M12.61,8.18A3.76,3.76,0,0,0,8.85,12v7.29A3.76,3.76,0,0,0,12.61,23H19.9a3.76,3.76,0,0,0,3.77-3.76V12A3.77,3.77,0,0,0,19.9,8.18Z"/></g></g></svg>