<svg xmlns="http://www.w3.org/2000/svg" xmlns:xlink="http://www.w3.org/1999/xlink" viewBox="0 0 13.71 18.35"><defs><style>.cls-1{fill:none;}.cls-2{opacity:0.5;}.cls-3{clip-path:url(#clip-path);}</style><clipPath id="clip-path" transform="translate(0 0)"><rect class="cls-1" width="13.71" height="18.35"/></clipPath></defs><g id="Layer_2" data-name="Layer 2"><g id="Layer_1-2" data-name="Layer 1"><g class="cls-2"><g class="cls-3"><path d="M12.18,18.35H1.52A1.53,1.53,0,0,1,0,16.82V9.17A1.53,1.53,0,0,1,1.52,7.64H12.18a1.54,1.54,0,0,1,1.53,1.53v7.65a1.54,1.54,0,0,1-1.53,1.53M1.52,8.41a.76.76,0,0,0-.76.76v7.65a.76.76,0,0,0,.76.76H12.18a.76.76,0,0,0,.76-.76V9.17a.76.76,0,0,0-.76-.76Z" transform="translate(0 0)"/><path d="M11,8.41A.38.38,0,0,1,10.66,8V4.59a3.81,3.81,0,1,0-7.61,0V8a.39.39,0,0,1-.77,0V4.59a4.57,4.57,0,1,1,9.14,0V8a.38.38,0,0,1-.38.38" transform="translate(0 0)"/></g></g></g></g></svg>