<?xml version="1.0" encoding="utf-8"?>
<!-- Generator: Adobe Illustrator 24.3.0, SVG Export Plug-In . SVG Version: 6.00 Build 0)  -->
<svg version="1.1" id="Layer_1" xmlns="http://www.w3.org/2000/svg" xmlns:xlink="http://www.w3.org/1999/xlink" x="0px" y="0px"
	 viewBox="0 0 31.1 31.1" style="enable-background:new 0 0 31.1 31.1;" xml:space="preserve">
<style type="text/css">
	.st0{clip-path:url(#SVGID_2_);}
	.st1{fill:url(#SVGID_3_);}
	.st2{fill-rule:evenodd;clip-rule:evenodd;fill:#FFFFFF;}
</style>
<g id="Layer_2_1_">
	<g id="Layer_1-2">
		<g>
			<defs>
				<path id="SVGID_1_" d="M7.7,0h15.8c4.2,0,7.6,3.4,7.6,7.7v15.8c0,4.2-3.4,7.6-7.6,7.6H7.7c-4.2,0-7.7-3.4-7.7-7.6V7.7
					C0,3.4,3.4,0,7.7,0z"/>
			</defs>
			<clipPath id="SVGID_2_">
				<use xlink:href="#SVGID_1_"  style="overflow:visible;"/>
			</clipPath>
			<g class="st0">
				
					<linearGradient id="SVGID_3_" gradientUnits="userSpaceOnUse" x1="-2380.0317" y1="191.3268" x2="-2379.0317" y2="191.3268" gradientTransform="matrix(-26.6438 26.6438 -26.6438 -26.6438 -58285.8594 68512.3359)">
					<stop  offset="0" style="stop-color:#FF4C3C"/>
					<stop  offset="0.91" style="stop-color:#F0093E"/>
					<stop  offset="1" style="stop-color:#EE023E"/>
				</linearGradient>
				<polygon class="st1" points="-15.6,15.6 15.6,-15.6 46.7,15.6 15.6,46.7 				"/>
			</g>
		</g>
		<path class="st2" d="M14.4,19c0,0,0,0.1,0,0.1c-0.7,2.7-0.8,3.3-1.5,4.6c-0.4,0.6-0.7,1.1-1.2,1.7c0,0.1-0.1,0.1-0.2,0.1
			s-0.1-0.1-0.1-0.2c-0.1-0.8-0.2-1.7-0.1-2.5c0-1.1,0.2-1.5,1.6-7.4c0-0.1,0-0.2,0-0.2c-0.3-0.9-0.4-1.9-0.1-2.8
			c0.6-2,2.9-2.2,3.3-0.5c0.2,1-0.4,2.4-0.9,4.4c-0.4,1.6,1.5,2.8,3.2,1.6s2.1-3.7,2-5.6c-0.3-3.7-4.4-4.5-7-3.3
			c-3,1.4-3.6,5.1-2.3,6.7c0.2,0.2,0.3,0.4,0.2,0.6s-0.2,0.7-0.3,1c0,0.2-0.2,0.3-0.4,0.3c0,0-0.1,0-0.1,0C10,17.4,9.6,17,9.2,16.6
			c-1.3-2-1.3-4.6,0-6.6c1.7-2.5,4.6-3.8,7.6-3.4c3,0.2,5.5,2.4,6,5.3c0.3,2.2-0.3,4.4-1.6,6.2c-1.9,2.4-5.1,2.6-6.5,1.1
			C14.6,19.2,14.5,19.1,14.4,19"/>
	</g>
</g>
</svg>
