<?xml version="1.0" encoding="utf-8"?>
<!-- Generator: Adobe Illustrator 24.3.0, SVG Export Plug-In . SVG Version: 6.00 Build 0)  -->
<svg version="1.1" id="Layer_1" xmlns="http://www.w3.org/2000/svg" xmlns:xlink="http://www.w3.org/1999/xlink" x="0px" y="0px"
	 viewBox="0 0 31.1 31.3" style="enable-background:new 0 0 31.1 31.3;" xml:space="preserve">
<style type="text/css">
	.st0{clip-path:url(#SVGID_2_);}
	.st1{fill:url(#SVGID_3_);}
	.st2{fill:#FFFFFF;}
</style>
<g id="Layer_2_1_">
	<g id="Layer_1-2">
		<g>
			<defs>
				<path id="SVGID_1_" d="M7.7,0h15.8c4.2,0,7.6,3.4,7.6,7.7v15.8c0,4.2-3.4,7.6-7.6,7.6H7.7c-4.2,0-7.7-3.4-7.7-7.6V7.7
					C0,3.4,3.4,0,7.7,0z"/>
			</defs>
			<clipPath id="SVGID_2_">
				<use xlink:href="#SVGID_1_"  style="overflow:visible;"/>
			</clipPath>
			<g class="st0">
				
					<linearGradient id="SVGID_3_" gradientUnits="userSpaceOnUse" x1="-2291.4517" y1="191.3277" x2="-2290.4517" y2="191.3277" gradientTransform="matrix(-26.6438 26.6438 -26.6438 -26.6438 -55925.9531 66152.4766)">
					<stop  offset="0" style="stop-color:#00CCFF"/>
					<stop  offset="1" style="stop-color:#0080FF"/>
				</linearGradient>
				<polygon class="st1" points="-15.6,15.6 15.6,-15.6 46.7,15.6 15.6,46.7 				"/>
			</g>
		</g>
		<path class="st2" d="M24.2,10.2c-0.5,0.2-1.1,0.4-1.7,0.5c0.3,0,0.7-0.5,0.9-0.8c0.3-0.3,0.4-0.6,0.6-1c0,0,0-0.1,0-0.1
			c0,0-0.1,0-0.1,0c-0.6,0.3-1.3,0.6-2,0.8c0,0-0.1,0-0.1,0l-0.2-0.2c-0.3-0.3-0.6-0.5-1-0.6c-0.5-0.2-1-0.3-1.5-0.2
			c-1,0.1-2,0.6-2.6,1.4c-0.3,0.4-0.6,0.9-0.7,1.4c-0.1,0.5-0.1,1,0,1.5c0,0.1,0,0.1-0.1,0.1c-2.7-0.3-5.2-1.5-7-3.6
			c-0.1-0.1-0.1-0.1-0.2,0c-0.7,1.4-0.5,3.1,0.6,4.2c0.1,0.1,0.3,0.3,0.4,0.4c-0.5,0-1-0.2-1.4-0.4c-0.1-0.1-0.1,0-0.1,0.1
			c0,0.1,0,0.3,0,0.4c0.2,1.3,1,2.4,2.2,2.9c0.1,0.1,0.3,0.1,0.4,0.1c-0.4,0.1-0.9,0.1-1.3,0c-0.1,0-0.1,0-0.1,0.1
			c0.5,1.2,1.5,2.1,2.8,2.3c0.1,0,0.2,0,0.4,0.1l0,0c-0.5,0.5-1.2,0.8-1.9,1c-0.9,0.3-1.9,0.5-2.9,0.4c-0.2,0-0.2,0-0.2,0
			s0,0.1,0,0.1s0.4,0.2,0.6,0.4c0.6,0.3,1.3,0.6,1.9,0.8c3.5,1.1,7.3,0.2,10-2.3c1.9-2.1,2.9-4.8,2.8-7.6c0-0.1,0.1-0.2,0.2-0.2
			c0.5-0.4,1-0.9,1.4-1.4C24.2,10.4,24.2,10.3,24.2,10.2L24.2,10.2C24.2,10.2,24.2,10.2,24.2,10.2"/>
	</g>
</g>
</svg>
