<svg xmlns="http://www.w3.org/2000/svg" xmlns:xlink="http://www.w3.org/1999/xlink" viewBox="0 0 17.51 18.39"><defs><style>.cls-1{fill:none;}.cls-2{opacity:0.5;}.cls-3{clip-path:url(#clip-path);}</style><clipPath id="clip-path" transform="translate(0 0)"><rect class="cls-1" width="17.51" height="18.39"/></clipPath></defs><g id="Layer_2" data-name="Layer 2"><g id="Layer_1-2" data-name="Layer 1"><g class="cls-2"><g class="cls-3"><path d="M8.76,9.22A8.78,8.78,0,0,0,0,18a.38.38,0,1,0,.76,0,8,8,0,1,1,16,0,.38.38,0,0,0,.76,0A8.78,8.78,0,0,0,8.76,9.22" transform="translate(0 0)"/><path d="M8.76,0a4.21,4.21,0,1,0,4.18,4.2A4.2,4.2,0,0,0,8.76,0m0,7.64A3.44,3.44,0,1,1,12.18,4.2,3.44,3.44,0,0,1,8.76,7.64" transform="translate(0 0)"/></g></g></g></g></svg>