<?xml version="1.0" encoding="utf-8"?>
<!-- Generator: Adobe Illustrator 24.3.0, SVG Export Plug-In . SVG Version: 6.00 Build 0)  -->
<svg version="1.1" id="Layer_1" xmlns="http://www.w3.org/2000/svg" xmlns:xlink="http://www.w3.org/1999/xlink" x="0px" y="0px"
	 viewBox="0 0 31.1 31.1" style="enable-background:new 0 0 31.1 31.1;" xml:space="preserve">
<style type="text/css">
	.st0{clip-path:url(#SVGID_2_);}
	.st1{fill:url(#SVGID_3_);}
	.st2{fill:#FFFFFF;}
</style>
<g id="Layer_2_1_">
	<g id="Layer_1-2">
		<g>
			<defs>
				<path id="SVGID_1_" d="M7.7,0C3.4,0,0,3.4,0,7.7v15.8c0,4.2,3.4,7.6,7.7,7.6h15.8c4.2,0,7.6-3.4,7.6-7.6V7.7
					c0-4.2-3.4-7.6-7.6-7.7H7.7z"/>
			</defs>
			<clipPath id="SVGID_2_">
				<use xlink:href="#SVGID_1_"  style="overflow:visible;"/>
			</clipPath>
			<g class="st0">
				
					<linearGradient id="SVGID_3_" gradientUnits="userSpaceOnUse" x1="-2335.7417" y1="191.3252" x2="-2334.7417" y2="191.3252" gradientTransform="matrix(-26.6438 26.6438 -26.6438 -26.6438 -57106.0586 67332.4531)">
					<stop  offset="0" style="stop-color:#FF0000"/>
					<stop  offset="1" style="stop-color:#9B0000"/>
				</linearGradient>
				<polygon class="st1" points="-15.6,15.6 15.6,-15.6 46.7,15.6 15.6,46.7 				"/>
			</g>
		</g>
		<path class="st2" d="M23.9,13.3c0-2.1-1.7-3.7-3.7-3.7l0,0h-9.6c-2.1,0-3.7,1.7-3.7,3.7c0,0,0,0,0,0v4.4c0,2.1,1.7,3.7,3.7,3.7
			c0,0,0,0,0,0h9.6c2.1,0,3.7-1.7,3.7-3.7c0,0,0,0,0,0V13.3z M18.3,15.9L14,18c-0.2,0.1-0.7,0-0.7-0.2v-4.4c0-0.2,0.6-0.3,0.7-0.2
			l4.1,2.2C18.3,15.5,18.5,15.8,18.3,15.9"/>
	</g>
</g>
</svg>
